<svg xmlns="http://www.w3.org/2000/svg" viewBox="0 0 16.2 19" fill="#000"><path d="M5.84878 2.25693C5.86321 2.19164 5.8831 2.09847 5.90612 1.99058C5.98165 1.63661 6.09103 1.12402 6.15298 0.916092C6.19475 0.775842 6.3066 0.756438 6.4592 0.815031C6.68787 0.902815 6.94477 1.13085 7.12514 1.3248C7.30802 1.52144 7.45447 1.74684 7.49373 1.98708C7.52656 2.22402 7.49011 2.37288 7.4308 2.61513C7.41849 2.66538 7.40521 2.71965 7.39135 2.77955C7.21695 3.62793 5.64444 10.0231 5.01922 12.5602C5.96437 13.1171 7.01246 13.3168 7.50519 13.3211C7.60332 13.3266 7.70013 13.33 7.79563 13.3314C7.88508 12.7448 7.97602 12.2636 8.0297 12.0017C8.77786 8.2766 9.96421 5.40777 10.5168 4.07157C10.5523 3.98562 10.5852 3.906 10.6153 3.83291C10.6155 3.83234 10.6184 3.82545 10.6237 3.81288C10.7082 3.61097 11.4056 1.94525 11.8535 1.427C12.0627 1.1744 12.3528 0.975609 12.6102 1.13484C12.7621 1.22951 12.9605 1.52676 13.0444 1.6524C13.066 1.68477 13.0801 1.70576 13.0837 1.70895C13.3297 2.09239 13.1238 2.49995 12.793 3.15469C12.6595 3.41904 12.5056 3.72369 12.3528 4.08331C12.0298 4.7494 10.6584 7.97246 9.91332 10.7096C9.67342 11.5132 9.45644 12.3359 9.27087 13.1853C10.3927 12.9349 11.2752 12.3897 11.9449 11.749C13.1335 10.6201 13.5425 9.66695 13.7277 9.1001C13.7617 8.99576 13.8515 8.96501 13.9285 8.97501C14.0167 8.97334 14.328 9.19196 14.4279 9.33775C14.4894 9.42749 14.5028 9.50426 14.5179 9.59054L14.518 9.59124L14.5183 9.59275C14.5195 9.5998 14.5208 9.60691 14.522 9.61409L14.5231 9.6197C14.6116 10.1078 14.4321 10.8163 13.9719 11.5732C13.8185 11.8807 12.3343 14.3351 8.97017 14.7593C8.90434 15.1625 8.8461 15.5721 8.79625 15.989C8.69355 16.7395 8.61016 18.2202 8.62102 18.3232C8.60781 18.4955 8.59567 18.5384 8.49104 18.5367C8.10673 18.5367 7.58232 17.9507 7.53969 16.6069C7.51942 16.0461 7.55266 15.4172 7.61104 14.8034C6.77702 14.7211 5.66264 14.3664 4.70575 13.8566C4.64354 14.128 4.54641 14.5397 4.43988 14.9913L4.43955 14.9927L4.43946 14.9931C4.21827 15.9307 3.95672 17.0394 3.88317 17.4192C3.83928 17.67 3.80488 17.849 3.77711 17.9935C3.74097 18.1815 3.71606 18.3111 3.69607 18.4646C3.69145 18.492 3.68717 18.5177 3.68314 18.542L3.68306 18.5425L3.68295 18.5431C3.63255 18.8467 3.621 18.9163 3.47484 18.937C2.98975 18.8465 2.58328 18.1839 2.68496 17.262C2.74748 16.5037 3.12689 14.5539 3.44218 12.9875C2.99918 12.5815 1.0704 10.6852 0.374678 6.96221C0.313326 6.67322 0.156764 5.32512 0.465609 5.10149C0.550176 5.01645 0.735729 5.04301 0.847254 5.07112C1.02157 5.11509 1.28121 5.29066 1.33459 5.3442C1.51379 5.50976 1.56514 5.86068 1.62067 6.24024C1.63658 6.34897 1.65283 6.46005 1.67253 6.56979C1.77299 7.14743 1.90416 7.64154 1.97024 7.89051C1.98706 7.95383 1.99966 8.0013 2.00647 8.03024C2.54964 9.98063 3.20328 10.8735 3.74907 11.4733C3.80825 11.1804 3.85165 10.9618 3.87119 10.8508C4.20122 9.42645 5.84285 2.28392 5.84878 2.25693Z"/><path d="M13.8768 7.29519C13.2236 6.77165 13.56 6.06664 13.8136 5.8263C13.9803 5.66605 14.195 5.55725 14.4006 5.51311C15.118 5.36743 15.6358 5.86575 15.6824 6.44686C15.7116 7.03199 15.1542 7.32658 15.0811 7.35722C14.4803 7.65428 14.0455 7.42124 13.8768 7.29519Z"/></svg>